<svg xmlns="http://www.w3.org/2000/svg" viewBox="0 0 340 160"><g fill="#444"><path d="M142.1 86.9c0-4.3-.1-7.5-.3-10.3h7l.3 6.1h.2c1.6-4.5 5.3-6.8 8.8-6.8.8 0 1.3 0 1.9.2v7.7c-.8-.1-1.5-.2-2.4-.2-3.9 0-6.6 2.5-7.3 6.1-.1.7-.2 1.6-.2 2.5v16.7H142l.1-22zm41.9 2.3c0-3-1.3-7.8-6.7-7.8-5 0-7.1 4.5-7.4 7.8H184zm-14.1 5.6c.2 5.8 4.7 8.4 9.9 8.4 3.7 0 6.4-.6 8.9-1.5l1.2 5.6c-2.8 1.2-6.6 2-11.2 2-10.4 0-16.5-6.4-16.5-16.3 0-8.9 5.4-17.3 15.7-17.3 10.4 0 13.8 8.6 13.8 15.6 0 1.5-.1 2.7-.3 3.5h-21.5zm114-3c-6.9-.2-16 .8-16 8.4 0 4.6 3 6.6 6.3 6.6 5.3 0 8.3-3.3 9.4-6.3.2-.7.3-1.4.3-1.9v-6.8zm3.1 9.4c0 2.5.1 5.1.5 7.5h-2.9l-.5-4.5h-.1c-1.5 2.4-5.1 5.3-10.1 5.3-6.4 0-9.3-4.5-9.3-8.7 0-7.3 6.5-11.7 19.3-11.6v-.8c0-3.1-.6-9.4-8.1-9.3-2.8 0-5.7.7-8 2.4l-1-2.3c2.9-2 6.4-2.7 9.3-2.7 9.1 0 10.9 6.9 10.9 12.5v12.2zm12.5-31.1v7h9v2.5h-9v20.6c0 4 1.3 6.6 4.7 6.6 1.6 0 2.8-.2 3.6-.5l.4 2.4c-1 .4-2.5.8-4.4.8-2.3 0-4.2-.7-5.5-2.2-1.4-1.7-1.9-4.3-1.9-7.6v-20H291V77h5.3v-5.8l3.2-1.1zm-51.6 6.2c-2.4 0-4.6.7-6.4 1.8-1.9 1.1-3.4 2.8-4.3 4.6h-.1V67l-3.1-.9v42.5h3.1V89.4c0-1.3.1-2.2.4-3.1 1.4-3.9 5.1-7.2 9.6-7.2 6.5 0 8.7 5.2 8.7 10.9v18.8h3.1V89.6c0-11.8-8-13.3-11-13.3m-29.3 18.5c0 .9-.1 1.6-.2 2.4-.8 3.5-3.7 5.8-7 5.8-5.1 0-8-4.3-8-10.2 0-6 2.9-10.6 8.1-10.6 3.7 0 6.3 2.6 7 5.7.1.7.2 1.5.2 2.1v4.8zm8.1-30.6l-8.1-2.2v18h-.1c-1.4-2.4-4.6-4.2-9-4.2-7.7 0-14.5 6.4-14.4 17.2 0 9.9 6.1 16.4 13.7 16.4 4.6 0 8.5-2.2 10.4-5.8h.1l.4 5.1h7.2c-.1-2.2-.3-5.7-.3-9V64.2zm-145.1 41c.2.2.7 1 .1 2-.3.5-.6.9-1.1 1.3-.7.5-1.9 1.1-3.7 0-1-.6-1-.8-2.3-.6-.9.1-1.3-.8-1-1.6.3-.8 1.7-1.4 3.4-.4.8.5 2 1.4 3 .6.4-.4.7-.6 1.3-1.3.2-.1.2-.1.3 0 0-.1 0-.1 0 0M66 57.8c-2.3 0-3.9.3-5.3.3s-2.5-1-3-1.6c-.4-.5-1.8-1-2.5.7s.6 3.5 1.8 3.8c0 0 1.9 3.5 3.3 2 1-1.1 1.6-1.7 7-2.1 2.6-.2 2.8-.8 2.8-1.4-.2-.9-1.8-1.7-4.1-1.7zm13-7.5h-.3c-.5 0-1 0-1.6.1-1.8.2-3.4.6-4.4 1.2-.1 0-.1.1-.1.1 0 .1.1.1.2.1.3 0 .6-.1.9-.1 2.9-.3 5.4.2 5.5 1.1.1.7-1.2 1.4-3.1 1.8-.1 0-.2.1-.2.2s.1.2.2.2c.8.2 1.7.4 2.7.4 3 .1 5.5-1 5.5-2.4.1-1.4-2.3-2.6-5.3-2.7z"/><path d="M70.8 38.5c-25.9 0-46.9 21-46.9 46.9 0 5.2.9 10.3 2.4 15h3.3c2.9 0 5.6-.7 7.8-1.9.6-.3 1.2-.5 1.9-.5 1.4 0 2.7.6 3.5 1.8.7 1.2 1.3 1.9 2.1 2.4.7.4 1.6.8 2.9.7.6 0 1.5-.2 1.8-.8.3-.7-.1-1.3-1-1.7-1.3-.5-1.6-1.3-2.3-2.5-.7-1.2-2.1-1.8-2.4-4.1-.2-2.2 1.5-5 4.9-4.1 2.5.6 4.1 3.7 4.7 4.8.3.6 1.4 1.2 2.3.4.9-.8 1.7-.8 2.4.2.6.9 4.8 6.5 9.4 6.7 4.6.1 7.1-1 9.1-1 1.4.1 2.1.8 2.9.9 1.4.2 2.4-1.1 4-1 1.3.1 2.7.9 4.1.9 1.4 0 4.4-1.7 4.4-1-.1 1.3-1 3.5-1.3 4.5-.2.7 0 2.4-.4 3.8s-1.7 3.2-2 3.7c-1.1 1.7-2 2.2-2.9 4-1 2-2.8 3.9-3.2 4.5-.6.8 3.3 0 4.6-1.3 1.2-1.1 3.2-4.4 6.4-5.1 2.2-.5 2.6-1.3 2.3-2.1 0-.1-.1-.2-.1-.3 0-.3.2-.5.4-.7 2.2-.9 5.2-1.5 8.6-1.5 1.9 0 3.9.3 5.7.7 4.8-7.3 7.5-16.1 7.5-25.5 0-25.8-21-46.8-46.9-46.8zM109 84.4c-2.2 12.3-22.4 16.5-42.1 10.5-18.7-5.7-35.1-17-33.2-23.6 1.1-3.9 7.2-5.5 15.3-4.6-1.2 2.5-1.1 5.5 4.2 8.8 6.6 3.7 17.7 6.9 20.7 6.6 1.1-.1 2.1-.7 1.1-1.3-1-.7-1.9-2-2.5-4.4-.3-1.3-.7-3.1-7.7-4.5-15.2-2.9-14.6-7.2-14.1-9.6 0 0 1.3-6.1 1.9-8.2.6-2.1 2-7 11.8-4.8 5.6 1.3 8.7-.3 10.2-.7 4.2-1.1 8.9-.3 11.5 2.3 2.7 2.8 6.4 11.2 8.1 17.6.9 3.2.7 4.8.2 5.9-.3.7-.5 1.2-1.6 3.1-.2.3 0 .7.4.5 2.9-1.5 3.6-3.5 4.1-5.1 7.9 1.8 12.7 5.9 11.7 11.5zM313.3 107v-.7h.5c.2 0 .5.1.5.3 0 .4-.3.4-.6.4h-.4zm0 .3h.4l.6 1h.4l-.7-1c.3 0 .6-.2.6-.7 0-.5-.3-.7-.8-.7h-.8v2.4h.4v-1z"/><path d="M313.8 105.3c-1.1 0-1.9.9-1.9 1.9 0 1.1.9 1.9 1.9 1.9 1.1 0 1.9-.9 1.9-1.9 0-1.1-.9-1.9-1.9-1.9m2.3 1.9c0 1.3-1 2.3-2.3 2.3-1.3 0-2.3-1-2.3-2.3 0-1.3 1-2.3 2.3-2.3 1.2-.1 2.3 1 2.3 2.3m-198.4-.2v-.7h.5c.2 0 .5.1.5.3 0 .4-.3.4-.6.4h-.4zm0 .3h.4l.6 1h.4l-.7-1c.3 0 .6-.2.6-.7 0-.5-.3-.7-.8-.7h-.9v2.4h.4v-1z"/><path d="M118.1 105.3c-1.1 0-1.9.9-1.9 1.9 0 1.1.9 1.9 1.9 1.9 1.1 0 1.9-.9 1.9-1.9 0-1.1-.8-1.9-1.9-1.9m2.3 1.9c0 1.3-1 2.3-2.3 2.3-1.3 0-2.3-1-2.3-2.3 0-1.3 1-2.3 2.3-2.3 1.3-.1 2.3 1 2.3 2.3"/></g></svg>
