<svg xmlns="http://www.w3.org/2000/svg" viewBox="0 0 340 160"><path fill="#444" d="M93.3 56.8v25.8c0 8.6-3.8 12.2-12.7 12.2-8.9 0-12.7-3.6-12.7-12.2v-27h-8.6c-.8 0-1.1.4-1.1 1.1v26.2c0 14.4 9.2 19.4 22.5 19.4s22.5-5 22.5-19.4V55.6h-8.6c-1 0-1.3.4-1.3 1.2zM218 63.1c.7 0 1-.2 1.3-.8l2.5-6.2c.1-.4 0-.6-.4-.6h-34.7c-3.2 0-4.5 1-4.5 3.2v40c0 1.9.9 2.7 3.4 2.7H218c.7 0 1-.2 1.3-.8l2.5-6.2c.1-.4 0-.6-.4-.6h-29.6V86c0-2.8 1.6-4.1 5.7-4.1h12.8c.7 0 1-.2 1.3-.8l2.4-5.9c.1-.4 0-.6-.4-.6h-21.9V63.1H218zm-61 14.3c3.8-2 5.3-5.7 5.3-10.1 0-10.2-8.3-11.7-16.8-11.7h-19.6c-3.2 0-4.5 1-4.5 3.2v40c0 1.9.9 2.7 3.4 2.7H149c9.1 0 15.6-3.5 15.6-12.7-.1-5.4-2.4-10.1-7.6-11.4zM131 63h15.2c5.1 0 6.5 1.9 6.5 5.9s-1.4 5.9-6.5 5.9H131V63zm17 31.2h-17v-8.4c0-2.8 1.6-4.1 5.7-4.1H148c5.4 0 6.9 2.1 6.9 6.3 0 4.2-1.5 6.2-6.9 6.2zm133.8 6.6l-10.3-17.7c5.1-1.3 9.3-4.7 9.3-13.3 0-11.1-6.9-14.2-18.3-14.2h-19.7c-3.2 0-4.5 1-4.5 3.2v41.6c0 .8.4 1.1 1.1 1.1h8.4V88.2c0-2.8 1.6-4.1 5.7-4.1h8.5l9.3 16.7c.3.5.6.8 1.3.8h8.7c.7 0 .7-.5.5-.8zm-17.9-23.9h-16V63h16c6 0 7.3 2.3 7.3 7s-1.4 6.9-7.3 6.9z"/></svg>
