<svg xmlns="http://www.w3.org/2000/svg" viewBox="0 0 340 160"><path fill="#444" d="M164.8 52H156s-1.1.8-1.1 2.5c0 2 1.1 2.5 1.1 2.5h7.9c11.4 0 18.6 7.7 18.6 22.8 0 16.2-7.1 23.2-19.7 23.2h-5.1c-.7 0-1.7-1-1.7-1.4V78c0-7.8-5.2-12.1-13.8-12.1-5.9 0-10.2 2.6-12.2 7.1v-4.9c0-.7-.5-1-1.1-1h-14.6s-1 1-1 2.5c0 1.6.9 2.5.9 2.5h3.3c.8 0 1.5.4 1.5 1.5v28.1c0 .7-.5 1.4-1.1 1.4h-3.2l-1.4 4h20.9s.7-.6.7-2.1c0-1.4-.7-1.9-.7-1.9h-2.5c-.7 0-.7-.7-.7-1.4V79.8c2-5.6 5.8-8.9 9.2-8.9 3.1 0 4.8 2.4 4.8 5.9v24.6c0 .9-.7 1.7-1.3 1.7h-3s-.8.5-.8 1.9c0 1.5.8 2.1.8 2.1h24.6c24.5 0 30.8-15 30.8-27.4 0-19.9-13.6-27.7-31.3-27.7zm-54.9 50.9c-2.7-.2-2.9-1.9-2.9-3.7V77.8c0-3.1-1.3-6.8-3.9-8.9-3.3-2.8-8.2-3.5-12.3-3.5-5.4 0-9.7.7-14.1 2.1-.5.2-.7.7-.7 1.3v5.9c0 .5.3 1.3.8 1.3h2.3c.5 0 1-.5 1.3-1 1.3-1.7 2.8-3.2 4.1-3.9 1.1-.6 3.2-1.4 5-1.4 4.5 0 6.5 3.2 6.5 7v5.9c-17-1-23.9 4-23.9 11.9 0 9.1 6.2 12.9 12.4 12.9 5.5 0 9.7-2.1 12-5.3.5 2.8 2.2 4.8 4.4 4.8h8.8l1.5-4h-1.3zM96 97h-.1c-1.7 2-4.5 4.1-7.6 4.1-3.8 0-5.9-1.9-5.9-6.2 0-5 2.6-7.7 13.6-7.7V97zM47.9 72.1c-7.8-2.7-9.4-5-9.4-8.1 0-3.4 3.2-6.9 10-6.9 2.4 0 4.8.8 7.2 2.3 1.4.9 2.9 2.3 4.6 5.2.2.3.6.4.8.4h2.4c.3 0 .4-.1.4-.5v-9.3c0-.5-.3-.8-.8-1.1-4.6-1.5-9.2-2.2-15.2-2.2-11.1 0-18.5 6.3-18.5 16 0 9.5 7.2 13.5 16.6 16.4 6 1.8 13.1 4.3 13.1 10.2 0 3.5-3.3 7.6-9.7 7.6-4.9 0-8.1-1.8-10-3.7-2-2-3.7-3.8-5.4-7.4-.2-.4-.5-.8-.9-.8-1 0-2.6-.1-2.6-.1-.4.1-.5.3-.5.9v10.8c0 .4 0 1.1.4 1.3 5.6 3.2 12.7 4.4 18.8 4.4 10.7-.1 18.9-7.2 18.9-18.5 0-12.3-11.3-13.8-20.2-16.9zm197.9 9.5c-8.1-2-9.8-3.4-9.8-6.3 0-2.4 2.1-5 6.4-5 4.2 0 8.1 2.4 10 5.2.2.4.6.4 1.1.4h2c.4 0 .5 0 .5-.2v-7.1c0-.5-.2-1-.8-1.1-3.1-.9-7.8-1.5-12.9-1.5-6.9 0-14.4 4-14.4 12.4 0 7.3 5.9 11.3 10.9 12.6 8.6 2.4 11.1 3.6 11.1 7.2 0 3.2-2.5 5.1-6.8 5.1-4.4 0-8.5-3.2-10.8-8.9-.4-.6-.7-.7-1.1-.7-1.1-.1-2.3 0-2.6 0-.4 0-.7.2-.7.7v8.4c0 .7.8 1.3.8 1.3s2.4 1.5 5.2 2.5c2.4.7 5.2 1.4 9.2 1.4 10.2 0 15-6.3 15-13.7 0-6.5-3.7-10.6-12.3-12.7zM223.2 103h-4.6c-.7 0-1.6-.6-1.6-1.2V68.5c0-1 .1-1.5-1-1.5h-14.2s-1 .6-1 2c0 1.3 1 2 1 2h4c.2 0 .3.6.3 1v29.7c0 .7-.3 1.3-.8 1.3h-4.6s-.9.5-.9 1.9c0 1.3.9 2.1.9 2.1h22.6s.7-.8.7-2.1-.8-1.9-.8-1.9zM207 61.1V61h10.3c.6 0 1-.1 1.1-.6l2.4-7.4c.2-.6-.2-1-.8-1h-10.7c-.6 0-.9.5-1 1l-2 6.7c-.3.8-.3 1.4.7 1.4zM309.7 103H308c-2 0-4-.8-5.1-2.4-.5-.7-13.1-20.1-13.4-20.6 3.3-4.4 4.9-6.1 7.8-7.6 1.9-1 5.4-1.7 8-1.7 0 0 .6-.5.6-1.9 0-1.5-.6-2-.6-2l-12.8.1c-.5 0-1.1.3-1.6 1-.2.4-10 14.7-13 18.5V53.8c0-.8-.5-1.4-1.4-1.4-1 0-15.9-.1-15.9-.1s-.8.4-.8 1.7c0 1.4.8 1.9.8 1.9h5.1c.7 0 1.2.7 1.2 1.4v44.5c0 .7-.6 1.1-1 1.1H261s-.8.6-.8 1.9.8 2.1.8 2.1h21.2s.7-.9.7-2.1-.7-1.9-.7-1.9h-3.4c-.5 0-.9-.6-.9-1V91.6c1-1.1 2.9-2.9 3-3.2.7-.7 1.4-.4 1.7.2.5.7 8.5 13.1 8.7 13.5.4.6.2.9-.2.9h-2.5s-.7 1-.7 2c0 1.1.6 2 .6 2h21.2s.7-.8.7-2-.7-2-.7-2z"/></svg>