<svg xmlns="http://www.w3.org/2000/svg" viewBox="0 0 340 160"><path fill="#444" d="M294.5 50.2c2-.1 4-.1 6-.1-6 12.5-11.8 25.2-17.7 37.8h-4.9c-2.7-6.3-5.9-12.5-8.6-18.8 2-.1 3.9-.1 5.9 0 1.7 3.9 3.7 7.6 5.2 11.5 4.7-10.1 9.5-20.2 14.1-30.4zm-150.9 5.4c3.8.1 7.8.1 11.6 0-.1 3.4-.1 6.9 0 10.3-3.8-.1-7.8 0-11.6-.1 0-3.4-.1-6.8 0-10.2zM85.2 70.3c7.9-4.5 19.4-3 24.7 4.8 3.3 4.6 4.2 10.4 4.2 15.9H86.9c.4 2.8 1.6 5.7 4.2 7.2 3.7 2.2 9.5 1.5 11.3-2.7 3.7-.1 7.4-.1 11.2 0-1.2 4.3-4.3 7.9-8.2 9.9-4.2 2.3-9.3 2.7-14 2-5-.8-9.5-3.6-12.3-7.8-3.1-4.4-3.8-10.1-3.2-15.3.8-5.7 4.2-11.1 9.3-14zm6.2 6.6c-2.6 1.2-3.8 4-4.4 6.7h15.5c-.3-2.1-1-4.2-2.6-5.6-2.3-2.2-5.8-2.2-8.5-1.1zm115.4-8.6c6.2-1.1 13.1.2 17.9 4.5 8.2 7.3 8.5 21.4.9 29.1-6 6.3-16.1 7.4-23.8 3.9-6-2.7-10-8.7-10.7-15.2-.3-3.7-.1-7.6 1.4-11.1 2.4-5.8 8-10.1 14.3-11.2zm1.3 8.6c-3.3 1.2-4.8 4.7-5.3 7.9-.4 4-.3 8.5 2.3 11.9 2.8 3.6 9 3.5 11.8-.1 2.3-2.9 2.7-6.8 2.4-10.4-.2-3.2-1.3-6.5-3.9-8.5-2.2-1.4-4.9-1.6-7.3-.8zm40-6.4c3.8-3 9.3-3.3 13.8-1.5 3.2 1.4 5.5 4.2 6.6 7.4 1.3 3.3.9 6.9.9 10.4 0 6.6-.1 13.3.1 19.9-3.8.1-7.7 0-11.6.1V84c0-2-.7-4.1-2.4-5.3-2.5-1.7-6.1-1.4-8.2.7-1.7 1.7-2.4 4.1-2.4 6.4v20.9c-3.8-.1-7.6 0-11.4-.1 0-12.5.1-25.1 0-37.6 3.7.1 7.4-.1 11.2.1-.1 1.7-.1 3.5-.1 5.2 1.2-1.3 2.1-2.8 3.5-3.8zM39.5 69.1h12c2.4 8.1 5 16.1 7.3 24.3 2.8-8 4.9-16.2 7.5-24.3 3.8-.1 7.8 0 11.6-.1-4.4 12.5-8.8 25.1-13.1 37.6-4 0-8-.1-12 .1-4.6-12.5-8.7-25.2-13.3-37.6zm77.2-.1h11.1c-.1 2.1 0 4.2-.1 6.3.9-1 1.6-2.4 2.6-3.4 2.5-2.7 6.5-3.8 10.1-2.9-.1 3.3-.1 6.6 0 9.9-2.8-.3-6-.2-8.4 1.5-2.6 1.8-3.7 5.1-3.7 8.2-.1 6 0 12 0 18-3.8 0-7.8-.1-11.6.1.1-12.6.1-25.1 0-37.7zm26.9.1c3.9-.1 7.8 0 11.6-.1-.1 12.5 0 25.1 0 37.6-3.8-.1-7.8 0-11.6 0V69.1zm14.7-.1c10.5.1 21 0 31.4.1-.1 2.9 0 5.7-.1 8.6-.4.7-1 1.3-1.5 1.9-5.4 6-10.7 12.1-16.1 18 6.2.1 12.3 0 18.5.1v9.1c-10.8-.1-21.5-.1-32.3 0v-8.7c5.6-6.3 11.2-12.6 16.9-18.9.2-.3.8-.6.5-1-5.8.2-11.6 0-17.4.1.1-3.2.1-6.2.1-9.3z"/></svg>
