<svg xmlns="http://www.w3.org/2000/svg" viewBox="0 0 340 160"><path fill="#444" d="M66.5 35.6v5.7h40.3v-5.7H66.5zm46 0v5.7h57.4s-5.9-5.7-13.6-5.7h-43.8zm68.7 0v5.7h34.7l-2.1-5.7h-32.6zm59.6 0l-2 5.7h34.4v-5.7h-32.4zm-174.3 11v5.7h40.3v-5.7H66.5zm46 0v5.7h64.1s-.8-4.4-2.1-5.7h-62zm68.7 0v5.7h38.5l-1.9-5.7h-36.6zm55.5 0l-1.9 5.7h38.4v-5.7h-36.5zm-158.6 11v5.7h17.5v-5.7H78.1zm46 0v5.7h17.5v-5.7h-17.5zm34.4 0v5.7h17.4s1.1-3 1.1-5.7h-18.5zm34.3 0v5.7h30.9l-2.1-5.7h-28.8zm40.1 0l-2.1 5.7h31.1v-5.7h-29zM78.1 68.7v5.7h17.5v-5.7H78.1zm46 0v5.7h44.6s3.7-2.9 4.9-5.7h-49.5zm68.7 0v5.7h17.4v-3.2l1.1 3.2h32l1.2-3.2v3.2H262v-5.7h-32.8l-1.7 4.8-1.7-4.8h-33zm-114.7 11v5.7h17.5v-5.7H78.1zm46 0v5.7h49.5c-1.2-2.8-4.9-5.7-4.9-5.7h-44.6zm68.7 0v5.7h17.4v-5.7h-17.4zm20.6 0l2.1 5.7h24l2-5.7h-28.1zm31.1 0v5.7H262v-5.7h-17.5zm-166.4 11v5.7h17.5v-5.7H78.1zm46 0v5.7h17.5v-5.7h-17.5zm34.4 0v5.7H177c0-2.7-1.1-5.7-1.1-5.7h-17.4zm34.3 0v5.7h17.4v-5.7h-17.4zm24.5 0l2 5.7h16.1l2.1-5.7h-20.2zm27.2 0v5.7H262v-5.7h-17.5zm-177.7 11v5.7h40.3v-5.7H66.8zm45.7 0v5.7h62c1.3-1.3 2.1-5.7 2.1-5.7h-64.1zm69 0v5.7h28.7v-5.7h-28.7zm39.8 0l2.1 5.7h8.2l2-5.7h-12.3zm23.2 0v5.7h29v-5.7h-29zm-177.7 11v5.7h40.3v-5.7H66.8zm45.7 0v5.7h43.8c7.8 0 13.6-5.7 13.6-5.7h-57.4zm69 0v5.7h28.7v-5.7h-28.7zm43.8 0l2 5.6h.3l2.1-5.7-4.4.1zm19.2 0v5.7h29v-5.7h-29z"/></svg>